<svg width="94" height="34" viewBox="0 0 94 34" fill="none" xmlns="http://www.w3.org/2000/svg"><g clip-path="url(#a)" fill-rule="evenodd" clip-rule="evenodd" fill="#fff"><path d="M84.3 20.25h2.396l2.262 6.428 2.207-6.427h2.355l-3.718 9.192c-.66 1.62-1.716 2.774-3.164 3.46l-1.092-1.54a4.141 4.141 0 0 0 2.183-2.132l-3.429-8.98Zm-1.067-3.219v12.148H80.97V17.03h2.263ZM70.436 29.179V17.03h2.262v4.196c.932-.647 1.947-.97 3.045-.97 2.065 0 3.097 1.108 3.095 3.322v5.6H76.58v-5.627c0-.984-.492-1.476-1.476-1.477-.792 0-1.593.376-2.405 1.129v5.975h-2.262Zm-1.49-.255c-.74.171-1.565.256-2.475.255-3.299 0-4.947-1.545-4.947-4.635 0-2.863 1.649-4.294 4.947-4.293.911 0 1.736.085 2.474.255v1.784a10.357 10.357 0 0 0-2.302-.253c-1.908 0-2.86.836-2.86 2.507 0 1.9.953 2.85 2.86 2.848.775.003 1.547-.083 2.302-.255v1.787Zm-14.427-4.98h3.736c.081-1.28-.516-1.92-1.791-1.921-1.194 0-1.842.64-1.945 1.92Zm5.861 1.647h-5.86c0 1.2.983 1.801 2.951 1.801.91 0 1.817-.085 2.71-.255v1.787c-.788.171-1.806.256-3.05.255-3.25 0-4.873-1.522-4.871-4.566 0-2.91 1.486-4.363 4.46-4.362 2.973 0 4.193 1.78 3.66 5.34Zm-15.125-1.647h3.735c.082-1.28-.515-1.92-1.79-1.921-1.193 0-1.842.64-1.945 1.92Zm5.861 1.647h-5.86c0 1.2.983 1.801 2.95 1.801.91 0 1.818-.085 2.712-.255v1.787c-.79.171-1.807.256-3.052.255-3.249 0-4.872-1.522-4.87-4.566 0-2.91 1.486-4.363 4.46-4.362 2.974 0 4.194 1.78 3.66 5.34Zm-17.818-4.975c1.188-.243 2.502-.365 3.942-.365 3.156 0 4.734 1.415 4.734 4.246 0 3.124-1.445 4.686-4.335 4.685a5.265 5.265 0 0 1-2.079-.424v3.658H33.3v-11.8Zm2.262 6.235c.62.307 1.31.458 2.07.458 1.406 0 2.109-.943 2.108-2.828 0-1.604-.802-2.406-2.405-2.405-.757 0-1.348.04-1.77.117l-.003 4.658Zm-13.05 1.82v-2.038c1.223.452 2.605.678 4.146.678 1.87 0 2.805-.622 2.807-1.868 0-.908-.577-1.36-1.724-1.36h-2.083c-2.495 0-3.744-1.134-3.745-3.4 0-2.491 1.777-3.738 5.332-3.739 1.364 0 2.657.198 3.88.595v2.039a11.089 11.089 0 0 0-3.88-.679c-2.047 0-3.07.595-3.07 1.784 0 .905.495 1.36 1.485 1.36h2.081c2.656 0 3.983 1.134 3.983 3.4 0 2.55-1.689 3.824-5.066 3.823-1.541 0-2.923-.198-4.146-.594ZM9.226 14c5.095 0 9.225 4.117 9.225 9.192 0 5.262-4.258 9.763-9.19 10.728v-1.537c1.886-.6 5.713-2.56 7.123-6.594.123-.338.223-.686.296-1.039l.006-.025.005-.023.005-.023.004-.023.005-.022.004-.022.004-.021v-.003l.004-.02v-.003l.004-.021v-.003l.004-.02v-.004l.003-.02v-.004l.004-.02v-.004l.003-.019v-.004l.004-.02v-.004l.003-.019v-.005l.003-.019v-.005l.003-.018v-.006l.002-.018v-.006l.003-.018v-.006l.002-.017v-.008l.003-.016v-.007l.002-.017v-.007l.002-.016v-.009l.002-.015v-.009l.002-.015v-.009l.002-.015v-.058l.002-.014V23.167c.059-4.191-3.362-7.577-7.569-7.564-4.206.013-7.606 3.422-7.592 7.612.014 4.184 3.421 7.567 7.617 7.567h.017l.017 1.603h-.034C4.132 32.384 0 28.268 0 23.192S4.132 14 9.226 14Z"/><path d="M7.75 19.544v4.666a.583.583 0 0 1-1.168 0v-4.666a.583.583 0 0 1 1.167 0Zm4.12 2.912v4.667a.583.583 0 0 1-1.168 0v-4.667a.583.583 0 0 1 1.168 0Zm2.062 1.8v1.07a.585.585 0 1 1-1.167 0v-1.07a.585.585 0 1 1 1.167 0Zm-4.123-6.538v4.316a.583.583 0 0 1-1.167 0v-4.316a.583.583 0 0 1 1.167 0Zm0 6.631v4.316a.583.583 0 0 1-1.167 0v-4.316a.583.583 0 0 1 1.167 0Zm-4.12-3.006v1.07a.585.585 0 1 1-1.167 0v-1.07a.585.585 0 1 1 1.167 0Z"/></g><path d="M.72 9h.987V6.699h1.342c1.518 0 2.27-.917 2.27-2.125 0-1.205-.745-2.12-2.267-2.12H.72V9Zm.987-3.138v-2.56h1.24c.978 0 1.377.53 1.377 1.272 0 .741-.4 1.288-1.364 1.288H1.707Zm11.355-.135c0-2.093-1.253-3.362-2.947-3.362-1.7 0-2.95 1.269-2.95 3.362 0 2.09 1.25 3.362 2.95 3.362 1.694 0 2.947-1.268 2.947-3.362Zm-.978 0c0 1.595-.844 2.461-1.97 2.461-1.127 0-1.968-.866-1.968-2.46 0-1.596.84-2.462 1.969-2.462 1.125 0 1.969.866 1.969 2.461ZM16.395 9h.998l1.377-4.903h.051L20.2 9h.994l1.818-6.545H21.97l-1.272 5.072h-.06L19.31 2.455h-1.029l-1.326 5.068h-.061l-1.275-5.068H14.58L16.395 9Zm8.417 0h4.142v-.85h-3.155V6.146h2.902v-.847H25.8V3.305h3.116v-.85h-4.103V9Zm6.322 0h.988V6.523H33.528L34.858 9h1.125l-1.451-2.65c.802-.297 1.202-.965 1.202-1.844 0-1.205-.748-2.051-2.266-2.051h-2.334V9Zm.988-3.327V3.3h1.24c.975 0 1.378.464 1.378 1.205 0 .739-.403 1.167-1.365 1.167h-1.253ZM37.835 9h4.142v-.85h-3.154V6.146h2.902v-.847h-2.902V3.305h3.116v-.85h-4.104V9Zm8.442 0c1.995 0 3.148-1.237 3.148-3.282 0-2.036-1.153-3.263-3.08-3.263h-2.187V9h2.12Zm-1.131-.863v-4.82h1.137c1.432 0 2.17.857 2.17 2.4 0 1.55-.738 2.42-2.23 2.42h-1.077Zm9.69.863h2.508c1.521 0 2.209-.757 2.209-1.761 0-1.013-.71-1.585-1.359-1.62v-.064c.601-.154 1.103-.563 1.103-1.381 0-.968-.671-1.72-2.065-1.72h-2.397V9Zm.987-.847V6.056h1.46c.793 0 1.288.512 1.288 1.135 0 .55-.374.962-1.323.962h-1.425Zm0-2.867v-1.99h1.348c.783 0 1.157.411 1.157.955 0 .633-.517 1.035-1.182 1.035h-1.323Zm5.296-2.831 2.374 3.975V9h.985V6.43l2.375-3.975H65.73L64.02 5.43h-.07l-1.71-2.975h-1.122Z" fill="#fff"/><defs><clipPath id="a"><path fill="#fff" transform="translate(0 14)" d="M0 0h93.75v20H0z"/></clipPath></defs></svg>